<svg width="90" height="90" viewBox="20 0 90 70" fill="none" xmlns="http://www.w3.org/2000/svg">
<g filter="url(#filter0_d_1391_9)">
<rect x="20" y="10" width="50" height="50" rx="15" fill="#EDE7F2"/>
</g>
<path fill-rule="evenodd" clip-rule="evenodd" d="M44.9432 23.5781C45.1294 23.4109 45.3757 23.3232 45.6279 23.3345C50.9577 23.4941 55.4121 27.3653 56.2194 32.5392C56.2245 32.5701 56.2245 32.6016 56.2194 32.6325C56.2368 32.8773 56.1541 33.1188 55.9896 33.3037C55.8251 33.4885 55.5924 33.6013 55.3429 33.6173L46.3882 34.2081C46.092 34.2344 45.7984 34.1369 45.5793 33.9396C45.3602 33.7423 45.236 33.4634 45.2372 33.1715L44.6352 24.371V24.2259C44.6462 23.9784 44.757 23.7453 44.9432 23.5781ZM44.329 36.5093L52.0905 36.0118L52.1433 36.0325C52.4766 36.0379 52.794 36.1732 53.0257 36.4084C53.2574 36.6436 53.3844 36.9596 53.3788 37.2867C53.0729 41.7459 49.8054 45.4716 45.3587 46.4314C40.9121 47.3913 36.3537 45.3548 34.1704 41.433C33.5284 40.3035 33.1227 39.0595 32.9771 37.7739C32.9207 37.393 32.8959 37.0082 32.9032 36.6233C32.9179 31.8817 36.292 27.7891 41.0132 26.7863C41.5847 26.6792 42.1577 26.9647 42.4071 27.4808C42.4692 27.5744 42.5188 27.6754 42.5549 27.7814C42.6434 29.1483 42.7352 30.5022 42.8266 31.8505C42.8988 32.9151 42.9708 33.9763 43.0407 35.0374C43.0371 35.2874 43.0763 35.5362 43.1568 35.7733C43.3463 36.24 43.8179 36.5361 44.329 36.5093Z" fill="#75578E"/>
<defs>
<filter id="filter0_d_1391_9" x="0" y="0" width="90" height="90" filterUnits="userSpaceOnUse" color-interpolation-filters="sRGB">
<feFlood flood-opacity="0" result="BackgroundImageFix"/>
<feColorMatrix in="SourceAlpha" type="matrix" values="0 0 0 0 0 0 0 0 0 0 0 0 0 0 0 0 0 0 127 0" result="hardAlpha"/>
<feOffset dy="10"/>
<feGaussianBlur stdDeviation="10"/>
<feColorMatrix type="matrix" values="0 0 0 0 0.0235294 0 0 0 0 0.301961 0 0 0 0 0.227451 0 0 0 0.03 0"/>
<feBlend mode="normal" in2="BackgroundImageFix" result="effect1_dropShadow_1391_9"/>
<feBlend mode="normal" in="SourceGraphic" in2="effect1_dropShadow_1391_9" result="shape"/>
</filter>
</defs>
</svg>
