<svg width="90" height="90" viewBox="20 0 90 70" fill="none" xmlns="http://www.w3.org/2000/svg">
<g filter="url(#filter0_d_1391_8)">
<rect x="20" y="10" width="50" height="50" rx="15" fill="#C0F2EF"/>
</g>
<path fill-rule="evenodd" clip-rule="evenodd" d="M33.1097 33.4484C33.1097 27.8621 37.5878 23.3335 43.1118 23.3335C45.7645 23.3335 48.3085 24.3992 50.1843 26.2961C52.06 28.193 53.1138 30.7658 53.1138 33.4484C53.1138 39.0347 48.6357 43.5633 43.1118 43.5633C37.5878 43.5633 33.1097 39.0347 33.1097 33.4484ZM52.9483 41.5968L55.9272 44.0026H55.9789C56.5816 44.6121 56.5816 45.6002 55.9789 46.2097C55.3762 46.8192 54.3991 46.8192 53.7965 46.2097L51.3244 43.375C51.0907 43.1395 50.9593 42.8196 50.9593 42.4859C50.9593 42.1522 51.0907 41.8323 51.3244 41.5968C51.7751 41.1489 52.4976 41.1489 52.9483 41.5968Z" fill="#00A198"/>
<defs>
<filter id="filter0_d_1391_8" x="0" y="0" width="90" height="90" filterUnits="userSpaceOnUse" color-interpolation-filters="sRGB">
<feFlood flood-opacity="0" result="BackgroundImageFix"/>
<feColorMatrix in="SourceAlpha" type="matrix" values="0 0 0 0 0 0 0 0 0 0 0 0 0 0 0 0 0 0 127 0" result="hardAlpha"/>
<feOffset dy="10"/>
<feGaussianBlur stdDeviation="10"/>
<feColorMatrix type="matrix" values="0 0 0 0 0.770833 0 0 0 0 0.619075 0 0 0 0 0.56849 0 0 0 0.1 0"/>
<feBlend mode="normal" in2="BackgroundImageFix" result="effect1_dropShadow_1391_8"/>
<feBlend mode="normal" in="SourceGraphic" in2="effect1_dropShadow_1391_8" result="shape"/>
</filter>
</defs>
</svg>
