<svg width="90" height="90" viewBox="20 0 90 70" fill="none" xmlns="http://www.w3.org/2000/svg">
<g filter="url(#filter0_d_1391_6)">
<rect x="20" y="10" width="50" height="50" rx="15" fill="#FAF3D8"/>
</g>
<path fill-rule="evenodd" clip-rule="evenodd" d="M49.2028 30.6048C49.2028 33.3461 47.0186 35.5442 44.2945 35.5442C41.5705 35.5442 39.3863 33.3461 39.3863 30.6048C39.3863 27.8625 41.5705 25.6665 44.2945 25.6665C47.0186 25.6665 49.2028 27.8625 49.2028 30.6048ZM44.2945 44.3332C40.2935 44.3332 36.8773 43.6985 36.8773 41.16C36.8773 38.6205 40.2716 37.9627 44.2945 37.9627C48.2954 37.9627 51.7117 38.5973 51.7117 41.1369C51.7117 43.6754 48.3174 44.3332 44.2945 44.3332ZM51.3003 30.694C51.3003 32.0914 50.8837 33.3932 50.1528 34.4755C50.0777 34.5868 50.1445 34.7371 50.2771 34.7602C50.4598 34.7917 50.6488 34.8096 50.8409 34.8148C52.7568 34.8653 54.4764 33.6244 54.9515 31.7562C55.6552 28.9813 53.5889 26.4901 50.9578 26.4901C50.6718 26.4901 50.3982 26.5205 50.132 26.5752C50.0954 26.5836 50.0568 26.6004 50.0359 26.633C50.0108 26.6729 50.0296 26.7265 50.0547 26.7612C50.8451 27.876 51.3003 29.2356 51.3003 30.694ZM54.4733 36.7645C55.7606 37.0177 56.6074 37.5347 56.9582 38.2859C57.2547 38.9027 57.2547 39.6182 56.9582 40.2339C56.4216 41.3992 54.6915 41.7732 54.0191 41.8699C53.8802 41.8909 53.7685 41.7701 53.7831 41.6303C54.1266 38.4015 51.3943 36.8706 50.6874 36.5186C50.6571 36.5029 50.6509 36.4787 50.654 36.464C50.6561 36.4535 50.6686 36.4367 50.6916 36.4335C52.2212 36.4051 53.8656 36.6153 54.4733 36.7645ZM37.8673 34.8147C38.0594 34.8094 38.2474 34.7926 38.4311 34.76C38.5637 34.7369 38.6306 34.5867 38.5554 34.4753C37.8245 33.3931 37.4079 32.0912 37.4079 30.6938C37.4079 29.2354 37.8632 27.8758 38.6535 26.761C38.6786 26.7263 38.6963 26.6727 38.6723 26.6328C38.6514 26.6013 38.6118 26.5834 38.5763 26.575C38.309 26.5204 38.0354 26.4899 37.7494 26.4899C35.1182 26.4899 33.052 28.9811 33.7568 31.7561C34.2318 33.6242 35.9514 34.8651 37.8673 34.8147ZM38.0537 36.4634C38.0568 36.4791 38.0506 36.5023 38.0213 36.5191C37.3134 36.871 34.581 38.4019 34.9246 41.6297C34.9392 41.7705 34.8285 41.8903 34.6896 41.8703C34.0172 41.7737 32.2872 41.3996 31.7505 40.2344C31.453 39.6176 31.453 38.9031 31.7505 38.2864C32.1013 37.5351 32.947 37.0181 34.2344 36.7639C34.8431 36.6157 36.4865 36.4056 38.0171 36.434C38.0401 36.4371 38.0516 36.4539 38.0537 36.4634Z" fill="#FFCF00"/>
<defs>
<filter id="filter0_d_1391_6" x="0" y="0" width="90" height="90" filterUnits="userSpaceOnUse" color-interpolation-filters="sRGB">
<feFlood flood-opacity="0" result="BackgroundImageFix"/>
<feColorMatrix in="SourceAlpha" type="matrix" values="0 0 0 0 0 0 0 0 0 0 0 0 0 0 0 0 0 0 127 0" result="hardAlpha"/>
<feOffset dy="10"/>
<feGaussianBlur stdDeviation="10"/>
<feColorMatrix type="matrix" values="0 0 0 0 0.745833 0 0 0 0 0.649564 0 0 0 0 0.450608 0 0 0 0.05 0"/>
<feBlend mode="normal" in2="BackgroundImageFix" result="effect1_dropShadow_1391_6"/>
<feBlend mode="normal" in="SourceGraphic" in2="effect1_dropShadow_1391_6" result="shape"/>
</filter>
</defs>
</svg>
