<svg width="90" height="90" viewBox="20 0 90 70" fill="none" xmlns="http://www.w3.org/2000/svg">
<g filter="url(#filter0_d_1391_5)">
<rect x="19.9995" y="10.001" width="50" height="50" rx="15" fill="#E7F2EF"/>
</g>
<path fill-rule="evenodd" clip-rule="evenodd" d="M54.3564 31.6703L55.1963 32.5103C55.8612 33.1636 56.2228 34.0503 56.2228 34.9836C56.2345 35.9169 55.8729 36.8048 55.2196 37.4686C55.2119 37.4771 55.2041 37.4847 55.1963 37.4922C55.1924 37.4959 55.1885 37.4997 55.1846 37.5036L54.3564 38.3319C54.0298 38.6586 53.8432 39.1019 53.8432 39.5698V40.7703C53.8432 42.7069 52.2684 44.2831 50.3321 44.2831H49.1306C48.664 44.2831 48.2207 44.4686 47.8941 44.7953L47.0542 45.6353C46.366 46.3248 45.4678 46.6619 44.5696 46.6619C43.6714 46.6619 42.7732 46.3248 42.085 45.6481L41.2335 44.7953C40.9069 44.4686 40.4636 44.2831 39.997 44.2831H38.7955C36.8592 44.2831 35.2844 42.7069 35.2844 40.7703V39.5698C35.2844 39.1019 35.0978 38.6586 34.7712 38.3203L33.9313 37.4919C32.5665 36.1281 32.5548 33.8986 33.9196 32.5231L34.7712 31.6703C35.0978 31.3436 35.2844 30.9003 35.2844 30.4219V29.2319C35.2844 27.2953 36.8592 25.7214 38.7955 25.7214H39.997C40.4636 25.7214 40.9069 25.5336 41.2335 25.2069L42.0734 24.3669C43.4381 22.9914 45.6661 22.9914 47.0426 24.3564L47.8941 25.2069C48.2207 25.5336 48.664 25.7214 49.1306 25.7214H50.3321C52.2684 25.7214 53.8432 27.2953 53.8432 29.2319V30.4348C53.8432 30.9003 54.0298 31.3436 54.3564 31.6703ZM41.5601 39.0203C41.8401 39.0203 42.0967 38.9153 42.2834 38.7169L48.2791 32.7214C48.6757 32.3248 48.6757 31.6703 48.2791 31.2736C47.8825 30.8781 47.2409 30.8781 46.8443 31.2736L40.8486 37.2703C40.452 37.6669 40.452 38.3203 40.8486 38.7169C41.0352 38.9153 41.2918 39.0203 41.5601 39.0203ZM46.541 37.9936C46.541 38.5652 46.9959 39.0202 47.5675 39.0202C48.1274 39.0202 48.5823 38.5652 48.5823 37.9936C48.5823 37.4347 48.1274 36.9786 47.5675 36.9786C46.9959 36.9786 46.541 37.4347 46.541 37.9936ZM41.5717 30.9819C42.1316 30.9819 42.5866 31.4369 42.5866 31.9969C42.5866 32.5697 42.1316 33.0236 41.5717 33.0236C41.0118 33.0236 40.5452 32.5697 40.5452 31.9969C40.5452 31.4369 41.0118 30.9819 41.5717 30.9819Z" fill="#51A690"/>
<defs>
<filter id="filter0_d_1391_5" x="-0.000488281" y="0.000976562" width="90" height="90" filterUnits="userSpaceOnUse" color-interpolation-filters="sRGB">
<feFlood flood-opacity="0" result="BackgroundImageFix"/>
<feColorMatrix in="SourceAlpha" type="matrix" values="0 0 0 0 0 0 0 0 0 0 0 0 0 0 0 0 0 0 127 0" result="hardAlpha"/>
<feOffset dy="10"/>
<feGaussianBlur stdDeviation="10"/>
<feColorMatrix type="matrix" values="0 0 0 0 0.0235294 0 0 0 0 0.301961 0 0 0 0 0.227451 0 0 0 0.03 0"/>
<feBlend mode="normal" in2="BackgroundImageFix" result="effect1_dropShadow_1391_5"/>
<feBlend mode="normal" in="SourceGraphic" in2="effect1_dropShadow_1391_5" result="shape"/>
</filter>
</defs>
</svg>
