<svg width="90" height="90" viewBox="20 0 90 70" fill="none" xmlns="http://www.w3.org/2000/svg">
<g filter="url(#filter0_d_1391_10)">
<rect x="20" y="10" width="50" height="50" rx="15" fill="#D8F0FA"/>
</g>
<path fill-rule="evenodd" clip-rule="evenodd" d="M49.506 28.5485H49.7448C52.8838 28.5485 55.4314 31.1735 55.4314 34.3935V40.8335C55.4314 44.0535 52.8838 46.6668 49.7448 46.6668H38.963C35.824 46.6668 33.2764 44.0535 33.2764 40.8335V34.3935C33.2764 31.1735 35.824 28.5485 38.963 28.5485H39.2018C39.2246 27.1485 39.7591 25.8418 40.7258 24.8618C41.7039 23.8702 42.955 23.3685 44.3653 23.3335C47.1858 23.3335 49.4719 25.6668 49.506 28.5485ZM41.92 26.1102C41.2831 26.7635 40.9305 27.6268 40.9078 28.5485H47.8C47.7658 26.6352 46.2418 25.0835 44.3652 25.0835C43.4895 25.0835 42.5796 25.4452 41.92 26.1102ZM48.6761 33.0402C49.1541 33.0402 49.5296 32.6435 49.5296 32.1652V30.8119C49.5296 30.3335 49.1541 29.9369 48.6761 29.9369C48.2096 29.9369 47.8227 30.3335 47.8227 30.8119V32.1652C47.8227 32.6435 48.2096 33.0402 48.6761 33.0402ZM40.7836 32.1652C40.7836 32.6435 40.4081 33.0402 39.9301 33.0402C39.4636 33.0402 39.0767 32.6435 39.0767 32.1652V30.8119C39.0767 30.3335 39.4636 29.9369 39.9301 29.9369C40.4081 29.9369 40.7836 30.3335 40.7836 30.8119V32.1652Z" fill="#0985B9"/>
<defs>
<filter id="filter0_d_1391_10" x="0" y="0" width="90" height="90" filterUnits="userSpaceOnUse" color-interpolation-filters="sRGB">
<feFlood flood-opacity="0" result="BackgroundImageFix"/>
<feColorMatrix in="SourceAlpha" type="matrix" values="0 0 0 0 0 0 0 0 0 0 0 0 0 0 0 0 0 0 127 0" result="hardAlpha"/>
<feOffset dy="10"/>
<feGaussianBlur stdDeviation="10"/>
<feColorMatrix type="matrix" values="0 0 0 0 0.745833 0 0 0 0 0.649564 0 0 0 0 0.450608 0 0 0 0.05 0"/>
<feBlend mode="normal" in2="BackgroundImageFix" result="effect1_dropShadow_1391_10"/>
<feBlend mode="normal" in="SourceGraphic" in2="effect1_dropShadow_1391_10" result="shape"/>
</filter>
</defs>
</svg>
