<svg width="90" height="90" viewBox="20 0 90 70" fill="none" xmlns="http://www.w3.org/2000/svg">
<g filter="url(#filter0_d_379_332)">
<rect x="20" y="10" width="50" height="50" rx="15" fill="#CEEDFF"/>
</g>
<path fill-rule="evenodd" clip-rule="evenodd" d="M40.307 25H48.6836C51.771 25 53.4901 26.78 53.4901 29.83V40.16C53.4901 43.26 51.771 45 48.6836 45H40.307C37.2686 45 35.4995 43.26 35.4995 40.16V29.83C35.4995 26.78 37.2686 25 40.307 25ZM40.5768 29.6601V29.6501H43.5643C43.995 29.6501 44.3448 30.0001 44.3448 30.4291C44.3448 30.8701 43.995 31.2201 43.5643 31.2201H40.5768C40.146 31.2201 39.7972 30.8701 39.7972 30.4401C39.7972 30.0101 40.146 29.6601 40.5768 29.6601ZM40.5768 35.7401H48.4127C48.8425 35.7401 49.1923 35.3901 49.1923 34.9601C49.1923 34.5301 48.8425 34.1791 48.4127 34.1791H40.5768C40.146 34.1791 39.7972 34.5301 39.7972 34.9601C39.7972 35.3901 40.146 35.7401 40.5768 35.7401ZM40.5768 40.31H48.4128C48.8115 40.27 49.1124 39.929 49.1124 39.53C49.1124 39.12 48.8115 38.78 48.4128 38.74H40.5768C40.277 38.71 39.9871 38.85 39.8272 39.11C39.6673 39.36 39.6673 39.69 39.8272 39.95C39.9871 40.2 40.277 40.35 40.5768 40.31Z" fill="#4DBCFE"/>
<defs>
<filter id="filter0_d_379_332" x="0" y="0" width="90" height="90" filterUnits="userSpaceOnUse" color-interpolation-filters="sRGB">
<feFlood flood-opacity="0" result="BackgroundImageFix"/>
<feColorMatrix in="SourceAlpha" type="matrix" values="0 0 0 0 0 0 0 0 0 0 0 0 0 0 0 0 0 0 127 0" result="hardAlpha"/>
<feOffset dy="10"/>
<feGaussianBlur stdDeviation="10"/>
<feColorMatrix type="matrix" values="0 0 0 0 0.770833 0 0 0 0 0.619075 0 0 0 0 0.56849 0 0 0 0.1 0"/>
<feBlend mode="normal" in2="BackgroundImageFix" result="effect1_dropShadow_379_332"/>
<feBlend mode="normal" in="SourceGraphic" in2="effect1_dropShadow_379_332" result="shape"/>
</filter>
</defs>
</svg>
