<svg width="90" height="90" viewBox="20 0 90 70" fill="none" xmlns="http://www.w3.org/2000/svg">
<g filter="url(#filter0_d_379_546)">
<rect x="19.9998" y="10" width="50" height="50" rx="15" fill="#DAE6FF"/>
</g>
<path fill-rule="evenodd" clip-rule="evenodd" d="M34.4998 33.6699C34.4998 28.8817 38.3381 25 43.0729 25C45.3467 25 47.5273 25.9134 49.1351 27.5394C50.7429 29.1653 51.6461 31.3705 51.6461 33.6699C51.6461 38.4582 47.8078 42.3399 43.0729 42.3399C38.3381 42.3399 34.4998 38.4582 34.4998 33.6699ZM51.5043 40.6543L54.0576 42.7164H54.102C54.6185 43.2388 54.6185 44.0858 54.102 44.6082C53.5854 45.1306 52.7479 45.1306 52.2313 44.6082L50.1124 42.1784C49.9121 41.9766 49.7995 41.7023 49.7995 41.4164C49.7995 41.1304 49.9121 40.8561 50.1124 40.6543C50.4987 40.2704 51.118 40.2704 51.5043 40.6543Z" fill="#6E9CFD"/>
<defs>
<filter id="filter0_d_379_546" x="-0.000244141" y="0" width="90" height="90" filterUnits="userSpaceOnUse" color-interpolation-filters="sRGB">
<feFlood flood-opacity="0" result="BackgroundImageFix"/>
<feColorMatrix in="SourceAlpha" type="matrix" values="0 0 0 0 0 0 0 0 0 0 0 0 0 0 0 0 0 0 127 0" result="hardAlpha"/>
<feOffset dy="10"/>
<feGaussianBlur stdDeviation="10"/>
<feColorMatrix type="matrix" values="0 0 0 0 0.770833 0 0 0 0 0.619075 0 0 0 0 0.56849 0 0 0 0.1 0"/>
<feBlend mode="normal" in2="BackgroundImageFix" result="effect1_dropShadow_379_546"/>
<feBlend mode="normal" in="SourceGraphic" in2="effect1_dropShadow_379_546" result="shape"/>
</filter>
</defs>
</svg>
